<svg id="visual" viewBox="0 0 900 600" width="900" height="600" xmlns="http://www.w3.org/2000/svg" xmlns:xlink="http://www.w3.org/1999/xlink" version="1.1"><rect x="0" y="0" width="900" height="600" fill="#000501"></rect><g fill="#358134"><circle r="14" cx="767" cy="587"></circle><circle r="1" cx="127" cy="295"></circle><circle r="7" cx="849" cy="241"></circle><circle r="3" cx="801" cy="135"></circle><circle r="4" cx="778" cy="539"></circle><circle r="9" cx="94" cy="120"></circle><circle r="9" cx="87" cy="555"></circle><circle r="7" cx="742" cy="366"></circle><circle r="8" cx="843" cy="196"></circle><circle r="9" cx="160" cy="125"></circle><circle r="8" cx="305" cy="433"></circle><circle r="9" cx="875" cy="219"></circle><circle r="10" cx="686" cy="91"></circle><circle r="7" cx="279" cy="369"></circle><circle r="5" cx="370" cy="15"></circle><circle r="9" cx="374" cy="131"></circle><circle r="11" cx="873" cy="480"></circle><circle r="10" cx="532" cy="594"></circle><circle r="2" cx="184" cy="291"></circle><circle r="7" cx="96" cy="584"></circle><circle r="3" cx="314" cy="482"></circle><circle r="7" cx="539" cy="93"></circle><circle r="4" cx="333" cy="236"></circle><circle r="4" cx="833" cy="560"></circle><circle r="7" cx="267" cy="150"></circle><circle r="10" cx="602" cy="422"></circle><circle r="6" cx="249" cy="494"></circle><circle r="2" cx="496" cy="132"></circle><circle r="3" cx="547" cy="158"></circle><circle r="8" cx="153" cy="245"></circle><circle r="11" cx="109" cy="19"></circle><circle r="9" cx="380" cy="314"></circle><circle r="12" cx="264" cy="403"></circle><circle r="3" cx="270" cy="270"></circle><circle r="1" cx="384" cy="57"></circle><circle r="11" cx="150" cy="7"></circle><circle r="12" cx="229" cy="377"></circle><circle r="9" cx="644" cy="188"></circle><circle r="2" cx="835" cy="483"></circle><circle r="9" cx="270" cy="574"></circle><circle r="7" cx="491" cy="446"></circle><circle r="9" cx="418" cy="473"></circle><circle r="5" cx="677" cy="598"></circle><circle r="3" cx="438" cy="68"></circle><circle r="2" cx="731" cy="582"></circle><circle r="10" cx="720" cy="20"></circle><circle r="9" cx="864" cy="125"></circle><circle r="0" cx="785" cy="292"></circle><circle r="8" cx="233" cy="591"></circle><circle r="1" cx="640" cy="341"></circle><circle r="1" cx="628" cy="314"></circle><circle r="7" cx="648" cy="510"></circle><circle r="12" cx="348" cy="591"></circle><circle r="11" cx="423" cy="408"></circle><circle r="7" cx="596" cy="187"></circle><circle r="4" cx="527" cy="494"></circle><circle r="3" cx="298" cy="117"></circle><circle r="5" cx="405" cy="148"></circle><circle r="7" cx="780" cy="464"></circle><circle r="2" cx="320" cy="272"></circle><circle r="1" cx="276" cy="511"></circle><circle r="10" cx="843" cy="293"></circle><circle r="9" cx="552" cy="195"></circle><circle r="1" cx="107" cy="61"></circle><circle r="8" cx="630" cy="104"></circle><circle r="3" cx="176" cy="390"></circle><circle r="1" cx="316" cy="184"></circle><circle r="8" cx="18" cy="47"></circle><circle r="6" cx="74" cy="37"></circle><circle r="9" cx="497" cy="503"></circle><circle r="5" cx="261" cy="437"></circle><circle r="0" cx="56" cy="211"></circle><circle r="10" cx="512" cy="292"></circle><circle r="0" cx="2" cy="250"></circle><circle r="10" cx="139" cy="519"></circle><circle r="1" cx="193" cy="30"></circle><circle r="2" cx="53" cy="65"></circle><circle r="8" cx="193" cy="229"></circle><circle r="2" cx="130" cy="117"></circle><circle r="10" cx="826" cy="113"></circle><circle r="5" cx="577" cy="393"></circle><circle r="8" cx="706" cy="432"></circle><circle r="10" cx="145" cy="93"></circle><circle r="5" cx="99" cy="516"></circle><circle r="2" cx="540" cy="262"></circle><circle r="8" cx="530" cy="32"></circle><circle r="7" cx="563" cy="555"></circle><circle r="7" cx="56" cy="541"></circle><circle r="11" cx="158" cy="354"></circle><circle r="11" cx="70" cy="437"></circle><circle r="5" cx="892" cy="127"></circle><circle r="9" cx="351" cy="163"></circle><circle r="4" cx="642" cy="443"></circle><circle r="10" cx="589" cy="68"></circle><circle r="7" cx="747" cy="41"></circle><circle r="11" cx="309" cy="359"></circle><circle r="10" cx="497" cy="4"></circle><circle r="1" cx="522" cy="213"></circle><circle r="12" cx="439" cy="205"></circle><circle r="11" cx="572" cy="512"></circle><circle r="7" cx="419" cy="279"></circle><circle r="4" cx="306" cy="72"></circle><circle r="2" cx="127" cy="555"></circle><circle r="6" cx="377" cy="500"></circle><circle r="4" cx="329" cy="504"></circle><circle r="4" cx="843" cy="520"></circle><circle r="0" cx="742" cy="421"></circle><circle r="1" cx="88" cy="409"></circle><circle r="3" cx="678" cy="130"></circle><circle r="8" cx="506" cy="355"></circle><circle r="11" cx="83" cy="337"></circle><circle r="11" cx="221" cy="126"></circle><circle r="9" cx="360" cy="221"></circle><circle r="8" cx="613" cy="368"></circle><circle r="8" cx="880" cy="98"></circle><circle r="12" cx="699" cy="381"></circle><circle r="10" cx="693" cy="336"></circle><circle r="5" cx="819" cy="182"></circle><circle r="4" cx="137" cy="336"></circle><circle r="3" cx="608" cy="465"></circle><circle r="9" cx="669" cy="293"></circle><circle r="11" cx="763" cy="74"></circle><circle r="1" cx="234" cy="37"></circle><circle r="5" cx="878" cy="553"></circle><circle r="3" cx="675" cy="548"></circle><circle r="3" cx="11" cy="131"></circle><circle r="11" cx="794" cy="573"></circle><circle r="11" cx="535" cy="435"></circle><circle r="12" cx="390" cy="465"></circle><circle r="7" cx="272" cy="29"></circle><circle r="11" cx="353" cy="469"></circle><circle r="3" cx="673" cy="419"></circle><circle r="3" cx="604" cy="279"></circle><circle r="7" cx="467" cy="593"></circle><circle r="11" cx="3" cy="13"></circle><circle r="4" cx="70" cy="369"></circle><circle r="7" cx="762" cy="511"></circle><circle r="6" cx="430" cy="130"></circle><circle r="10" cx="117" cy="270"></circle><circle r="8" cx="804" cy="527"></circle><circle r="9" cx="622" cy="576"></circle><circle r="0" cx="25" cy="569"></circle><circle r="1" cx="810" cy="400"></circle><circle r="6" cx="259" cy="177"></circle><circle r="12" cx="425" cy="440"></circle><circle r="4" cx="327" cy="402"></circle><circle r="10" cx="30" cy="399"></circle><circle r="2" cx="111" cy="449"></circle><circle r="10" cx="327" cy="49"></circle><circle r="7" cx="897" cy="361"></circle><circle r="12" cx="352" cy="289"></circle><circle r="5" cx="587" cy="142"></circle><circle r="7" cx="198" cy="477"></circle><circle r="9" cx="99" cy="196"></circle><circle r="3" cx="642" cy="149"></circle><circle r="12" cx="874" cy="297"></circle><circle r="5" cx="754" cy="313"></circle><circle r="9" cx="526" cy="323"></circle><circle r="0" cx="868" cy="12"></circle><circle r="5" cx="842" cy="333"></circle><circle r="5" cx="170" cy="182"></circle><circle r="3" cx="825" cy="34"></circle><circle r="7" cx="382" cy="539"></circle><circle r="6" cx="636" cy="414"></circle><circle r="8" cx="45" cy="159"></circle><circle r="10" cx="680" cy="61"></circle><circle r="10" cx="668" cy="491"></circle><circle r="5" cx="475" cy="408"></circle><circle r="0" cx="609" cy="235"></circle><circle r="8" cx="555" cy="362"></circle><circle r="1" cx="517" cy="463"></circle><circle r="7" cx="462" cy="138"></circle><circle r="11" cx="140" cy="407"></circle><circle r="0" cx="413" cy="566"></circle><circle r="1" cx="458" cy="461"></circle><circle r="11" cx="753" cy="234"></circle><circle r="4" cx="235" cy="464"></circle><circle r="0" cx="487" cy="329"></circle><circle r="5" cx="139" cy="471"></circle><circle r="10" cx="189" cy="569"></circle><circle r="7" cx="461" cy="311"></circle><circle r="9" cx="735" cy="541"></circle><circle r="2" cx="456" cy="508"></circle><circle r="12" cx="489" cy="100"></circle><circle r="9" cx="20" cy="194"></circle><circle r="3" cx="388" cy="424"></circle><circle r="8" cx="278" cy="479"></circle><circle r="2" cx="76" cy="288"></circle><circle r="1" cx="833" cy="158"></circle><circle r="4" cx="844" cy="591"></circle><circle r="1" cx="466" cy="222"></circle><circle r="7" cx="660" cy="110"></circle><circle r="3" cx="572" cy="314"></circle><circle r="12" cx="294" cy="283"></circle><circle r="4" cx="310" cy="312"></circle><circle r="6" cx="24" cy="312"></circle><circle r="1" cx="339" cy="529"></circle><circle r="7" cx="445" cy="542"></circle><circle r="11" cx="859" cy="436"></circle><circle r="12" cx="518" cy="164"></circle><circle r="11" cx="342" cy="367"></circle><circle r="2" cx="617" cy="48"></circle><circle r="11" cx="357" cy="258"></circle><circle r="5" cx="742" cy="154"></circle><circle r="7" cx="154" cy="153"></circle><circle r="8" cx="154" cy="551"></circle><circle r="9" cx="197" cy="107"></circle><circle r="6" cx="800" cy="15"></circle><circle r="1" cx="120" cy="152"></circle><circle r="1" cx="697" cy="307"></circle><circle r="7" cx="23" cy="500"></circle><circle r="4" cx="191" cy="450"></circle><circle r="3" cx="446" cy="380"></circle><circle r="8" cx="382" cy="275"></circle><circle r="5" cx="135" cy="31"></circle><circle r="10" cx="594" cy="539"></circle><circle r="0" cx="644" cy="66"></circle><circle r="3" cx="743" cy="205"></circle><circle r="11" cx="205" cy="261"></circle><circle r="4" cx="658" cy="359"></circle><circle r="4" cx="381" cy="101"></circle><circle r="1" cx="871" cy="589"></circle><circle r="2" cx="290" cy="6"></circle><circle r="6" cx="455" cy="106"></circle><circle r="8" cx="234" cy="255"></circle><circle r="1" cx="364" cy="434"></circle><circle r="10" cx="151" cy="215"></circle><circle r="3" cx="714" cy="250"></circle><circle r="2" cx="617" cy="168"></circle><circle r="8" cx="570" cy="113"></circle><circle r="5" cx="550" cy="480"></circle><circle r="0" cx="431" cy="250"></circle><circle r="4" cx="801" cy="100"></circle><circle r="6" cx="523" cy="534"></circle><circle r="11" cx="795" cy="491"></circle><circle r="3" cx="260" cy="92"></circle><circle r="9" cx="421" cy="22"></circle><circle r="12" cx="777" cy="363"></circle><circle r="0" cx="12" cy="73"></circle><circle r="3" cx="889" cy="393"></circle><circle r="12" cx="187" cy="518"></circle><circle r="2" cx="697" cy="492"></circle><circle r="9" cx="401" cy="252"></circle><circle r="6" cx="578" cy="210"></circle><circle r="5" cx="539" cy="2"></circle><circle r="0" cx="643" cy="216"></circle><circle r="0" cx="652" cy="3"></circle><circle r="8" cx="284" cy="331"></circle><circle r="3" cx="873" cy="176"></circle><circle r="9" cx="216" cy="404"></circle><circle r="1" cx="876" cy="63"></circle><circle r="2" cx="678" cy="251"></circle><circle r="1" cx="778" cy="162"></circle><circle r="7" cx="585" cy="25"></circle><circle r="6" cx="412" cy="310"></circle><circle r="4" cx="410" cy="371"></circle><circle r="11" cx="845" cy="61"></circle><circle r="9" cx="47" cy="279"></circle><circle r="6" cx="126" cy="241"></circle><circle r="9" cx="49" cy="102"></circle><circle r="5" cx="371" cy="370"></circle><circle r="9" cx="198" cy="424"></circle><circle r="6" cx="240" cy="73"></circle><circle r="9" cx="602" cy="4"></circle><circle r="0" cx="250" cy="15"></circle><circle r="0" cx="201" cy="316"></circle><circle r="3" cx="238" cy="323"></circle><circle r="1" cx="28" cy="446"></circle><circle r="4" cx="791" cy="204"></circle><circle r="8" cx="285" cy="55"></circle><circle r="4" cx="224" cy="203"></circle><circle r="6" cx="720" cy="180"></circle><circle r="5" cx="384" cy="202"></circle><circle r="9" cx="525" cy="58"></circle><circle r="4" cx="164" cy="69"></circle><circle r="3" cx="336" cy="201"></circle><circle r="6" cx="294" cy="218"></circle><circle r="10" cx="58" cy="461"></circle><circle r="4" cx="470" cy="67"></circle><circle r="3" cx="450" cy="162"></circle><circle r="9" cx="191" cy="62"></circle><circle r="2" cx="795" cy="263"></circle><circle r="7" cx="671" cy="320"></circle><circle r="9" cx="17" cy="534"></circle><circle r="1" cx="248" cy="121"></circle><circle r="1" cx="717" cy="471"></circle><circle r="3" cx="827" cy="363"></circle><circle r="3" cx="872" cy="253"></circle><circle r="10" cx="48" cy="130"></circle><circle r="9" cx="393" cy="173"></circle><circle r="12" cx="568" cy="49"></circle><circle r="12" cx="562" cy="285"></circle><circle r="3" cx="260" cy="209"></circle><circle r="2" cx="34" cy="355"></circle><circle r="12" cx="721" cy="292"></circle><circle r="7" cx="490" cy="189"></circle><circle r="2" cx="890" cy="37"></circle><circle r="3" cx="749" cy="465"></circle><circle r="0" cx="585" cy="451"></circle><circle r="0" cx="376" cy="571"></circle><circle r="1" cx="500" cy="267"></circle><circle r="5" cx="397" cy="594"></circle><circle r="11" cx="502" cy="416"></circle><circle r="10" cx="107" cy="312"></circle><circle r="5" cx="640" cy="247"></circle><circle r="0" cx="201" cy="173"></circle><circle r="10" cx="12" cy="596"></circle><circle r="8" cx="72" cy="156"></circle><circle r="10" cx="5" cy="287"></circle><circle r="2" cx="8" cy="358"></circle><circle r="5" cx="161" cy="439"></circle><circle r="10" cx="623" cy="542"></circle><circle r="6" cx="851" cy="399"></circle><circle r="11" cx="60" cy="494"></circle><circle r="9" cx="424" cy="175"></circle><circle r="4" cx="498" cy="554"></circle><circle r="3" cx="104" cy="365"></circle><circle r="1" cx="783" cy="230"></circle><circle r="0" cx="531" cy="564"></circle><circle r="4" cx="31" cy="226"></circle><circle r="12" cx="362" cy="71"></circle><circle r="7" cx="304" cy="33"></circle><circle r="3" cx="647" cy="389"></circle><circle r="12" cx="455" cy="22"></circle><circle r="9" cx="739" cy="273"></circle><circle r="9" cx="648" cy="585"></circle><circle r="0" cx="689" cy="158"></circle><circle r="7" cx="206" cy="361"></circle><circle r="2" cx="223" cy="512"></circle><circle r="11" cx="445" cy="345"></circle><circle r="0" cx="524" cy="380"></circle><circle r="9" cx="502" cy="590"></circle><circle r="10" cx="824" cy="229"></circle><circle r="12" cx="542" cy="232"></circle><circle r="11" cx="259" cy="240"></circle><circle r="11" cx="589" cy="492"></circle><circle r="4" cx="489" cy="160"></circle><circle r="5" cx="739" cy="100"></circle><circle r="5" cx="696" cy="204"></circle><circle r="8" cx="482" cy="292"></circle><circle r="7" cx="357" cy="403"></circle><circle r="4" cx="705" cy="531"></circle><circle r="8" cx="47" cy="20"></circle><circle r="0" cx="792" cy="47"></circle><circle r="8" cx="694" cy="25"></circle><circle r="2" cx="610" cy="123"></circle><circle r="7" cx="728" cy="504"></circle><circle r="0" cx="802" cy="339"></circle><circle r="1" cx="319" cy="583"></circle><circle r="12" cx="685" cy="458"></circle><circle r="7" cx="236" cy="148"></circle><circle r="1" cx="328" cy="141"></circle><circle r="3" cx="803" cy="73"></circle><circle r="7" cx="574" cy="237"></circle><circle r="5" cx="138" cy="579"></circle><circle r="9" cx="251" cy="540"></circle><circle r="12" cx="334" cy="556"></circle><circle r="8" cx="166" cy="595"></circle><circle r="2" cx="90" cy="231"></circle><circle r="3" cx="200" cy="593"></circle><circle r="1" cx="310" cy="534"></circle><circle r="1" cx="729" cy="397"></circle><circle r="12" cx="861" cy="363"></circle><circle r="6" cx="830" cy="419"></circle><circle r="10" cx="827" cy="7"></circle><circle r="3" cx="252" cy="291"></circle><circle r="12" cx="691" cy="576"></circle><circle r="6" cx="720" cy="136"></circle><circle r="0" cx="723" cy="345"></circle><circle r="9" cx="586" cy="589"></circle><circle r="3" cx="64" cy="185"></circle><circle r="8" cx="408" cy="115"></circle><circle r="9" cx="767" cy="392"></circle><circle r="11" cx="431" cy="590"></circle><circle r="7" cx="462" cy="258"></circle><circle r="12" cx="508" cy="79"></circle><circle r="3" cx="123" cy="495"></circle><circle r="2" cx="850" cy="92"></circle><circle r="8" cx="473" cy="562"></circle><circle r="4" cx="896" cy="198"></circle><circle r="11" cx="350" cy="118"></circle><circle r="1" cx="593" cy="342"></circle><circle r="12" cx="137" cy="61"></circle><circle r="5" cx="773" cy="121"></circle><circle r="3" cx="226" cy="550"></circle><circle r="11" cx="801" cy="449"></circle><circle r="12" cx="495" cy="234"></circle><circle r="1" cx="393" cy="350"></circle><circle r="1" cx="534" cy="134"></circle><circle r="11" cx="225" cy="282"></circle><circle r="0" cx="148" cy="272"></circle><circle r="9" cx="322" cy="456"></circle><circle r="5" cx="253" cy="364"></circle><circle r="10" cx="100" cy="474"></circle><circle r="9" cx="346" cy="324"></circle><circle r="3" cx="222" cy="4"></circle><circle r="9" cx="168" cy="325"></circle><circle r="10" cx="141" cy="185"></circle><circle r="5" cx="499" cy="37"></circle><circle r="1" cx="73" cy="520"></circle><circle r="10" cx="785" cy="422"></circle><circle r="6" cx="55" cy="247"></circle><circle r="1" cx="879" cy="520"></circle><circle r="9" cx="614" cy="394"></circle><circle r="2" cx="303" cy="146"></circle><circle r="11" cx="690" cy="275"></circle><circle r="7" cx="162" cy="484"></circle><circle r="10" cx="572" cy="422"></circle><circle r="11" cx="223" cy="95"></circle><circle r="2" cx="665" cy="26"></circle><circle r="10" cx="715" cy="58"></circle><circle r="1" cx="303" cy="246"></circle><circle r="3" cx="889" cy="321"></circle><circle r="3" cx="76" cy="86"></circle><circle r="6" cx="822" cy="266"></circle><circle r="5" cx="497" cy="386"></circle><circle r="11" cx="6" cy="422"></circle><circle r="10" cx="61" cy="410"></circle><circle r="11" cx="302" cy="505"></circle><circle r="11" cx="616" cy="82"></circle><circle r="6" cx="403" cy="520"></circle><circle r="6" cx="228" cy="427"></circle><circle r="7" cx="670" cy="223"></circle><circle r="12" cx="635" cy="469"></circle><circle r="5" cx="762" cy="19"></circle><circle r="6" cx="765" cy="267"></circle><circle r="2" cx="760" cy="441"></circle><circle r="3" cx="560" cy="595"></circle><circle r="11" cx="190" cy="134"></circle><circle r="3" cx="331" cy="10"></circle><circle r="10" cx="407" cy="86"></circle><circle r="10" cx="883" cy="453"></circle><circle r="2" cx="447" cy="279"></circle><circle r="4" cx="336" cy="76"></circle><circle r="1" cx="765" cy="187"></circle><circle r="10" cx="165" cy="35"></circle><circle r="7" cx="451" cy="432"></circle><circle r="8" cx="4" cy="101"></circle><circle r="12" cx="429" cy="510"></circle><circle r="10" cx="612" cy="511"></circle><circle r="4" cx="898" cy="428"></circle><circle r="9" cx="563" cy="76"></circle><circle r="1" cx="898" cy="594"></circle><circle r="9" cx="67" cy="2"></circle><circle r="4" cx="285" cy="541"></circle><circle r="9" cx="632" cy="281"></circle><circle r="1" cx="804" cy="311"></circle><circle r="4" cx="472" cy="487"></circle><circle r="9" cx="292" cy="398"></circle><circle r="6" cx="111" cy="94"></circle><circle r="9" cx="672" cy="178"></circle><circle r="12" cx="319" cy="100"></circle><circle r="7" cx="386" cy="394"></circle><circle r="6" cx="196" cy="202"></circle><circle r="5" cx="415" cy="49"></circle><circle r="1" cx="92" cy="258"></circle><circle r="2" cx="61" cy="312"></circle><circle r="0" cx="835" cy="450"></circle><circle r="4" cx="55" cy="574"></circle><circle r="4" cx="898" cy="499"></circle><circle r="7" cx="482" cy="526"></circle><circle r="6" cx="814" cy="596"></circle><circle r="4" cx="3" cy="164"></circle><circle r="4" cx="179" cy="260"></circle><circle r="5" cx="97" cy="168"></circle><circle r="9" cx="644" cy="558"></circle><circle r="5" cx="4" cy="460"></circle><circle r="4" cx="414" cy="224"></circle><circle r="6" cx="760" cy="558"></circle><circle r="0" cx="802" cy="375"></circle><circle r="10" cx="173" cy="94"></circle><circle r="0" cx="544" cy="403"></circle><circle r="7" cx="676" cy="516"></circle><circle r="7" cx="887" cy="154"></circle><circle r="7" cx="590" cy="96"></circle><circle r="3" cx="122" cy="211"></circle><circle r="6" cx="546" cy="518"></circle><circle r="5" cx="516" cy="106"></circle><circle r="7" cx="183" cy="6"></circle><circle r="12" cx="480" cy="361"></circle><circle r="10" cx="287" cy="176"></circle><circle r="0" cx="28" cy="1"></circle><circle r="4" cx="637" cy="28"></circle><circle r="9" cx="336" cy="431"></circle><circle r="8" cx="32" cy="473"></circle><circle r="8" cx="292" cy="594"></circle><circle r="7" cx="857" cy="37"></circle><circle r="7" cx="112" cy="395"></circle><circle r="7" cx="2" cy="328"></circle><circle r="6" cx="613" cy="207"></circle><circle r="0" cx="712" cy="99"></circle><circle r="6" cx="899" cy="79"></circle><circle r="8" cx="898" cy="284"></circle><circle r="1" cx="572" cy="170"></circle><circle r="3" cx="395" cy="32"></circle><circle r="10" cx="27" cy="260"></circle><circle r="3" cx="258" cy="53"></circle><circle r="7" cx="753" cy="340"></circle><circle r="10" cx="4" cy="389"></circle><circle r="2" cx="2" cy="213"></circle><circle r="7" cx="44" cy="598"></circle><circle r="5" cx="463" cy="193"></circle><circle r="1" cx="133" cy="365"></circle><circle r="2" cx="571" cy="1"></circle><circle r="0" cx="820" cy="506"></circle><circle r="6" cx="728" cy="447"></circle><circle r="3" cx="70" cy="597"></circle><circle r="2" cx="117" cy="420"></circle><circle r="9" cx="157" cy="299"></circle><circle r="0" cx="710" cy="557"></circle><circle r="10" cx="361" cy="44"></circle><circle r="6" cx="556" cy="453"></circle><circle r="1" cx="719" cy="221"></circle><circle r="3" cx="232" cy="177"></circle><circle r="2" cx="295" cy="458"></circle><circle r="1" cx="359" cy="347"></circle><circle r="11" cx="278" cy="304"></circle><circle r="11" cx="898" cy="243"></circle><circle r="4" cx="217" cy="59"></circle><circle r="9" cx="777" cy="328"></circle><circle r="7" cx="674" cy="393"></circle><circle r="12" cx="894" cy="4"></circle><circle r="4" cx="119" cy="599"></circle><circle r="11" cx="231" cy="229"></circle><circle r="4" cx="582" cy="263"></circle><circle r="1" cx="199" cy="544"></circle><circle r="4" cx="598" cy="309"></circle><circle r="2" cx="398" cy="3"></circle><circle r="8" cx="385" cy="231"></circle><circle r="8" cx="287" cy="91"></circle></g></svg>